<svg width="600" height="300" xmlns="http://www.w3.org/2000/svg">
  <defs>
    <linearGradient id="mcpGrad" x1="0%" y1="0%" x2="100%" y2="100%">
      <stop offset="0%" style="stop-color:#6366f1;stop-opacity:1" />
      <stop offset="100%" style="stop-color:#8b5cf6;stop-opacity:1" />
    </linearGradient>
  </defs>
  
  <!-- Background -->
  <rect width="600" height="300" fill="#0f172a"/>
  
  <!-- Title -->
  <text x="300" y="35" text-anchor="middle" font-family="sans-serif" font-size="18" fill="#e2e8f0" font-weight="bold">MCP Tools & Resources</text>
  
  <!-- Tools Section -->
  <text x="150" y="70" text-anchor="middle" font-family="sans-serif" font-size="14" fill="url(#mcpGrad)" font-weight="bold">Tools</text>
  
  <rect x="50" y="85" width="200" height="45" rx="8" fill="#1e293b" stroke="#6366f1" stroke-width="2"/>
  <circle cx="70" cy="107" r="8" fill="#6366f1"/>
  <text x="85" y="100" font-family="monospace" font-size="11" fill="#e2e8f0">track_permission</text>
  <text x="85" y="118" font-family="sans-serif" font-size="9" fill="#94a3b8">Log tool calls with risk analysis</text>
  
  <rect x="50" y="140" width="200" height="45" rx="8" fill="#1e293b" stroke="#8b5cf6" stroke-width="2"/>
  <circle cx="70" cy="162" r="8" fill="#8b5cf6"/>
  <text x="85" y="155" font-family="monospace" font-size="11" fill="#e2e8f0">start_session</text>
  <text x="85" y="173" font-family="sans-serif" font-size="9" fill="#94a3b8">Begin tracking session</text>
  
  <rect x="50" y="195" width="200" height="45" rx="8" fill="#1e293b" stroke="#a78bfa" stroke-width="2"/>
  <circle cx="70" cy="217" r="8" fill="#a78bfa"/>
  <text x="85" y="210" font-family="monospace" font-size="11" fill="#e2e8f0">end_session</text>
  <text x="85" y="228" font-family="sans-serif" font-size="9" fill="#94a3b8">End tracking session</text>
  
  <rect x="50" y="250" width="200" height="45" rx="8" fill="#1e293b" stroke="#c4b5fd" stroke-width="2"/>
  <circle cx="70" cy="272" r="8" fill="#c4b5fd"/>
  <text x="85" y="265" font-family="monospace" font-size="11" fill="#e2e8f0">get_stats</text>
  <text x="85" y="283" font-family="sans-serif" font-size="9" fill="#94a3b8">Retrieve usage statistics</text>
  
  <!-- Resources Section -->
  <text x="450" y="70" text-anchor="middle" font-family="sans-serif" font-size="14" fill="url(#mcpGrad)" font-weight="bold">Resources</text>
  
  <rect x="350" y="85" width="200" height="45" rx="8" fill="#1e293b" stroke="#10b981" stroke-width="2"/>
  <path d="M 365 100 L 365 115 L 380 115 L 380 100 Z" fill="none" stroke="#10b981" stroke-width="2"/>
  <line x1="368" y1="103" x2="377" y2="103" stroke="#10b981" stroke-width="2"/>
  <line x1="368" y1="108" x2="377" y2="108" stroke="#10b981" stroke-width="2"/>
  <line x1="368" y1="113" x2="373" y2="113" stroke="#10b981" stroke-width="2"/>
  <text x="390" y="100" font-family="monospace" font-size="11" fill="#e2e8f0">audit://logs/recent</text>
  <text x="390" y="118" font-family="sans-serif" font-size="9" fill="#94a3b8">Last 100 entries</text>
  
  <rect x="350" y="140" width="200" height="45" rx="8" fill="#1e293b" stroke="#10b981" stroke-width="2"/>
  <path d="M 365 155 L 365 170 L 380 170 L 380 155 Z" fill="none" stroke="#10b981" stroke-width="2"/>
  <line x1="368" y1="158" x2="377" y2="158" stroke="#10b981" stroke-width="2"/>
  <line x1="368" y1="163" x2="377" y2="163" stroke="#10b981" stroke-width="2"/>
  <line x1="368" y1="168" x2="373" y2="168" stroke="#10b981" stroke-width="2"/>
  <text x="390" y="155" font-family="monospace" font-size="11" fill="#e2e8f0">audit://logs/all</text>
  <text x="390" y="173" font-family="sans-serif" font-size="9" fill="#94a3b8">Complete history</text>
  
  <rect x="350" y="195" width="200" height="45" rx="8" fill="#1e293b" stroke="#f59e0b" stroke-width="2"/>
  <circle cx="372" cy="217" r="12" fill="none" stroke="#f59e0b" stroke-width="2"/>
  <rect x="368" y="210" width="8" height="8" fill="#f59e0b"/>
  <rect x="368" y="218" width="8" height="6" fill="#f59e0b"/>
  <text x="390" y="210" font-family="monospace" font-size="11" fill="#e2e8f0">audit://stats</text>
  <text x="390" y="228" font-family="sans-serif" font-size="9" fill="#94a3b8">Usage statistics</text>
</svg>
