<svg width="700" height="250" xmlns="http://www.w3.org/2000/svg">
  <defs>
    <linearGradient id="useGrad" x1="0%" y1="0%" x2="100%" y2="0%">
      <stop offset="0%" style="stop-color:#6366f1;stop-opacity:1" />
      <stop offset="100%" style="stop-color:#8b5cf6;stop-opacity:1" />
    </linearGradient>
  </defs>
  
  <!-- Background -->
  <rect width="700" height="250" fill="#0f172a"/>
  
  <!-- Title -->
  <text x="350" y="35" text-anchor="middle" font-family="sans-serif" font-size="18" fill="#e2e8f0" font-weight="bold">Use Cases</text>
  
  <!-- Individual Developers -->
  <rect x="30" y="60" width="200" height="170" rx="10" fill="#1e293b" stroke="url(#useGrad)" stroke-width="2"/>
  <circle cx="130" cy="95" r="20" fill="url(#useGrad)"/>
  <circle cx="130" cy="90" r="8" fill="#fff"/>
  <path d="M 115 110 Q 130 120 145 110" stroke="#fff" stroke-width="2" fill="none"/>
  <text x="130" y="140" text-anchor="middle" font-family="sans-serif" font-size="13" fill="#e2e8f0" font-weight="bold">Developers</text>
  <text x="130" y="165" text-anchor="middle" font-family="sans-serif" font-size="10" fill="#94a3b8">Learning</text>
  <text x="130" y="182" text-anchor="middle" font-family="sans-serif" font-size="10" fill="#94a3b8">Safety</text>
  <text x="130" y="199" text-anchor="middle" font-family="sans-serif" font-size="10" fill="#94a3b8">Analytics</text>
  <circle cx="110" cy="162" r="3" fill="#10b981"/>
  <circle cx="110" cy="179" r="3" fill="#10b981"/>
  <circle cx="110" cy="196" r="3" fill="#10b981"/>
  
  <!-- Teams -->
  <rect x="250" y="60" width="200" height="170" rx="10" fill="#1e293b" stroke="url(#useGrad)" stroke-width="2"/>
  <circle cx="330" cy="95" r="15" fill="url(#useGrad)"/>
  <circle cx="360" cy="95" r="15" fill="url(#useGrad)"/>
  <circle cx="345" cy="110" r="15" fill="url(#useGrad)"/>
  <text x="350" y="140" text-anchor="middle" font-family="sans-serif" font-size="13" fill="#e2e8f0" font-weight="bold">Teams</text>
  <text x="350" y="165" text-anchor="middle" font-family="sans-serif" font-size="10" fill="#94a3b8">Collaboration</text>
  <text x="350" y="182" text-anchor="middle" font-family="sans-serif" font-size="10" fill="#94a3b8">Policies</text>
  <text x="350" y="199" text-anchor="middle" font-family="sans-serif" font-size="10" fill="#94a3b8">Code Review</text>
  <circle cx="330" cy="162" r="3" fill="#f59e0b"/>
  <circle cx="330" cy="179" r="3" fill="#f59e0b"/>
  <circle cx="330" cy="196" r="3" fill="#f59e0b"/>
  
  <!-- Enterprises -->
  <rect x="470" y="60" width="200" height="170" rx="10" fill="#1e293b" stroke="url(#useGrad)" stroke-width="2"/>
  <rect x="555" y="80" width="30" height="35" rx="3" fill="none" stroke="url(#useGrad)" stroke-width="2"/>
  <line x1="560" y1="90" x2="575" y2="90" stroke="url(#useGrad)" stroke-width="2"/>
  <line x1="560" y1="97" x2="580" y2="97" stroke="url(#useGrad)" stroke-width="2"/>
  <line x1="560" y1="104" x2="575" y2="104" stroke="url(#useGrad)" stroke-width="2"/>
  <text x="570" y="140" text-anchor="middle" font-family="sans-serif" font-size="13" fill="#e2e8f0" font-weight="bold">Enterprises</text>
  <text x="570" y="165" text-anchor="middle" font-family="sans-serif" font-size="10" fill="#94a3b8">Compliance</text>
  <text x="570" y="182" text-anchor="middle" font-family="sans-serif" font-size="10" fill="#94a3b8">Security</text>
  <text x="570" y="199" text-anchor="middle" font-family="sans-serif" font-size="10" fill="#94a3b8">Reporting</text>
  <circle cx="550" cy="162" r="3" fill="#ef4444"/>
  <circle cx="550" cy="179" r="3" fill="#ef4444"/>
  <circle cx="550" cy="196" r="3" fill="#ef4444"/>
</svg>
